<?xml version="1.0" encoding="UTF-8"?>
<svg version="1.1" xmlns="http://www.w3.org/2000/svg" width="48" height="48">
<path d="M0 0 C2.59668502 1.45778808 4.67661828 3.10336186 7 5 C8.299375 3.7625 8.299375 3.7625 9.625 2.5 C11.95839348 0.57741523 12.9305218 0.01302716 16 -0.5625 C20.57745567 0.29577294 23.52129697 1.9234263 26.265625 5.77734375 C29.71271865 12.29526378 30.22107706 19.79025824 29 27 C27.21484375 29.38671875 27.21484375 29.38671875 25 31 C20.5191744 31.56899373 18.24296198 31.69374622 14.3125 29.5 C7 21.59459459 7 21.59459459 7 17 C6.34 17 5.68 17 5 17 C4.690625 17.99 4.690625 17.99 4.375 19 C2.36212474 23.39172784 -0.56788333 27.56788333 -4 31 C-5.92578125 31.2734375 -5.92578125 31.2734375 -8.3125 31.375 C-9.48232422 31.44847656 -9.48232422 31.44847656 -10.67578125 31.5234375 C-13 31 -13 31 -15.2578125 28.86328125 C-18.32763928 23.81802782 -17.76766436 18.71115815 -17 13 C-15.43415068 8.12918184 -13.45375909 4.30073182 -9.625 0.875 C-6.08982483 -0.30339172 -3.71393456 -0.51226684 0 0 Z M15 5 C13.35 6.32 11.7 7.64 10 9 C11.48362284 15.26418531 15.24162156 19.91513505 19 25 C20.65 24.67 22.3 24.34 24 24 C24.53752122 17.54974534 24.03949554 12.27844625 20 7 C17.42240798 5.42930551 17.42240798 5.42930551 15 5 Z M-7.0625 7.75 C-10.34052859 11.55674288 -11.25731923 14.22186935 -11.125 19.25 C-11.10695313 20.14203125 -11.08890625 21.0340625 -11.0703125 21.953125 C-11.04710937 22.62859375 -11.02390625 23.3040625 -11 24 C-9.35 24.33 -7.7 24.66 -6 25 C-4.87162591 23.41906946 -3.74743482 21.83515284 -2.625 20.25 C-1.99851562 19.36828125 -1.37203125 18.4865625 -0.7265625 17.578125 C0.71480941 15.42585021 1.91498093 13.34539477 3 11 C0.68767578 8.43750025 0.68767578 8.43750025 -2 6 C-5.0695597 5.67651128 -5.0695597 5.67651128 -7.0625 7.75 Z " fill="#0079F3" transform="translate(18,9)"/>
</svg>
